<?xml version="1.0" encoding="UTF-8" standalone="no"?>
<!-- Created with Inkscape (http://www.inkscape.org/) -->

<svg
   width="259.06058mm"
   height="175.40504mm"
   viewBox="0 0 259.06058 175.40504"
   version="1.1"
   id="svg5"
   sodipodi:docname="Did You Know That There's a Tunnel Under Ocean Blvd.svg"
   inkscape:version="1.1.2 (b8e25be833, 2022-02-05)"
   xmlns:inkscape="http://www.inkscape.org/namespaces/inkscape"
   xmlns:sodipodi="http://sodipodi.sourceforge.net/DTD/sodipodi-0.dtd"
   xmlns="http://www.w3.org/2000/svg"
   xmlns:svg="http://www.w3.org/2000/svg">
  <sodipodi:namedview
     id="namedview7"
     pagecolor="#ffffff"
     bordercolor="#666666"
     borderopacity="1.0"
     inkscape:pageshadow="2"
     inkscape:pageopacity="0.0"
     inkscape:pagecheckerboard="0"
     inkscape:document-units="mm"
     showgrid="false"
     inkscape:zoom="0.5"
     inkscape:cx="491"
     inkscape:cy="320"
     inkscape:window-width="1920"
     inkscape:window-height="1017"
     inkscape:window-x="-8"
     inkscape:window-y="-8"
     inkscape:window-maximized="1"
     inkscape:current-layer="layer1" />
  <defs
     id="defs2" />
  <g
     inkscape:label="Layer 1"
     inkscape:groupmode="layer"
     id="layer1"
     transform="translate(26.989661,28.036507)">
    <g
       aria-label="Did You know
that there's a
tunnel under
Ocean Blvd"
       id="text6052"
       style="font-size:13.2895px;line-height:1.25;font-family:'AvantGarde LT Medium';-inkscape-font-specification:'AvantGarde LT Medium, ';fill:#f2db79;fill-opacity:1;stroke-width:0.177983"
       transform="matrix(3.3979874,0,0,3.7347137,64.395194,76.203349)"
       inkscape:export-filename="C:\Users\imtrx\Desktop\Did You Know That There's a Tunnel Under Ocean Blvd.png"
       inkscape:export-xdpi="44.9818"
       inkscape:export-ydpi="44.9818">
      <path
         d="M -26.893813,-17.132818 V -27.91107 h 4.714746 q 0.57759,0 0.987276,0.214137 0.40297,0.220627 0.658183,0.577523 0.255215,0.356895 0.376105,0.817615 0.114175,0.46072 0.114175,0.953885 v 5.690865 q 0,0.499654 -0.114175,0.953885 -0.12089,0.46072 -0.376105,0.804638 -0.255213,0.350407 -0.658183,0.558055 -0.409686,0.207649 -0.987276,0.207649 z m 3.90209,-7.987976 q 0,-0.188182 -0.141039,-0.33094 -0.141039,-0.136269 -0.335809,-0.136269 h -0.483563 v 6.034783 h 0.483563 q 0.19477,0 0.335809,-0.13627 0.141039,-0.136269 0.141039,-0.32445 z"
         style="font-family:TuristaGordaNFW01-Regular;-inkscape-font-specification:TuristaGordaNFW01-Regular;fill:#f2db79;fill-opacity:1;stroke-width:0.181071"
         id="path17712" />
      <path
         d="m -16.945804,-26.035745 h -2.808133 v -1.875325 h 2.808133 z m 0,8.902927 h -2.808133 v -8.494119 h 2.808133 z"
         style="font-family:TuristaGordaNFW01-Regular;-inkscape-font-specification:TuristaGordaNFW01-Regular;fill:#f2db79;fill-opacity:1;stroke-width:0.180665"
         id="path17714" />
      <path
         d="m -12.788473,-18.034791 q -0.230609,0.214137 -0.467806,0.382852 -0.243786,0.168714 -0.500749,0.279027 -0.256964,0.116803 -0.540282,0.175204 -0.283319,0.06489 -0.60617,0.06489 -0.349208,0 -0.658882,-0.103824 -0.309673,-0.103825 -0.533693,-0.304984 -0.230608,-0.194671 -0.362385,-0.480187 -0.131776,-0.279028 -0.131776,-0.642412 v -5.340459 q 0,-0.376363 0.125187,-0.681346 0.125188,-0.298495 0.349207,-0.506143 0.224019,-0.207649 0.540282,-0.324451 0.309675,-0.110313 0.685237,-0.110313 0.639114,0 1.146452,0.227115 0.50075,0.233605 0.955378,0.668369 v -3.179617 h 2.754122 v 10.778252 h -2.754122 z m 0,-5.080898 q 0,-0.103824 -0.03953,-0.201159 -0.04612,-0.09085 -0.118598,-0.162226 -0.07248,-0.06489 -0.164721,-0.110313 -0.09884,-0.03893 -0.204253,-0.03893 -0.210842,0 -0.355796,0.149247 -0.151542,0.155737 -0.151542,0.363385 v 3.471622 q 0,0.207649 0.151542,0.356896 0.144954,0.149248 0.355796,0.149248 0.210842,0 0.368974,-0.149248 0.158131,-0.149247 0.158131,-0.356896 z"
         style="font-family:TuristaGordaNFW01-Regular;-inkscape-font-specification:TuristaGordaNFW01-Regular;fill:#f2db79;fill-opacity:1;stroke-width:0.179346"
         id="path17716" />
      <path
         d="m -1.983216,-22.146698 v -4.522219 h 3.0751066 v 3.105621 1.182255 c 0,0.390163 0.00824,1.011752 -0.019989,1.853409 -0.00669,0.432287 -0.1002028,0.703901 -0.39716759,0.944199 -0.27740474,0.159015 -0.31076053,0.158006 -1.48130158,0.158006 v 2.526279 H -3.5477532 v -2.526279 c -0.8959712,0 -0.9448048,0.03089 -1.3617014,-0.146416 -0.3930422,-0.206463 -0.4866012,-0.456842 -0.4990132,-0.864351 -0.03827,-0.456231 -0.031513,-1.546373 -0.031513,-1.936536 v -1.190566 -3.105621 h 3.1247552 v 4.522219 z"
         style="font-family:TuristaGordaNFW01-Regular;-inkscape-font-specification:TuristaGordaNFW01-Regular;fill:#f2db79;fill-opacity:1;stroke-width:0.166035"
         id="path17718"
         sodipodi:nodetypes="cccssccccccccsscccc" />
      <path
         d="m 6.4821389,-25.626937 q 0.3085747,0 0.5449298,0.142758 0.2363551,0.149247 0.3939252,0.376363 0.1575701,0.227115 0.2429205,0.506143 0.078785,0.279028 0.078785,0.545077 v 5.340458 q 0,0.272539 -0.078785,0.551567 -0.08535,0.279027 -0.2429205,0.506143 -0.1575701,0.233604 -0.3939252,0.376362 -0.2363551,0.149248 -0.5449298,0.149248 H 2.4706678 q -0.3020094,0 -0.5383645,-0.149248 -0.2363551,-0.142758 -0.3939251,-0.376362 -0.1641355,-0.227116 -0.2429205,-0.506143 -0.08535,-0.279028 -0.08535,-0.551567 v -5.340458 q 0,-0.266049 0.08535,-0.545077 0.078785,-0.279028 0.2429205,-0.506143 0.15757,-0.227116 0.3939251,-0.376363 0.2363551,-0.142758 0.5383645,-0.142758 z m -1.4837847,2.511248 q 0,-0.103824 -0.039392,-0.201159 -0.045958,-0.09085 -0.1181775,-0.162226 -0.07222,-0.06489 -0.1641356,-0.110313 -0.098481,-0.03893 -0.2035279,-0.03893 -0.2100935,0 -0.3545327,0.149247 -0.1510047,0.155737 -0.1510047,0.363385 v 3.471622 q 0,0.207649 0.1510047,0.356896 0.1444392,0.149248 0.3545327,0.149248 0.2100933,0 0.3676635,-0.149248 0.15757,-0.149247 0.15757,-0.356896 z"
         style="font-family:TuristaGordaNFW01-Regular;-inkscape-font-specification:TuristaGordaNFW01-Regular;fill:#f2db79;fill-opacity:1;stroke-width:0.179028"
         id="path17720" />
      <path
         d="m 14.617715,-18.716138 q 0,0.272539 -0.07867,0.551567 -0.08522,0.279027 -0.242556,0.506143 -0.157332,0.233604 -0.393332,0.376362 -0.235999,0.149248 -0.54411,0.149248 H 9.3536136 q -0.301555,0 -0.5375546,-0.149248 -0.2359996,-0.142758 -0.3933327,-0.376362 -0.1638885,-0.227116 -0.2425551,-0.506143 -0.085222,-0.279028 -0.085222,-0.551567 v -6.910799 h 2.7533288 v 5.98287 q 0,0.207649 0.150777,0.356896 0.144222,0.149248 0.353999,0.149248 0.209777,0 0.367111,-0.149248 0.157333,-0.149247 0.157333,-0.356896 v -5.98287 h 2.740217 z"
         style="font-family:TuristaGordaNFW01-Regular;-inkscape-font-specification:TuristaGordaNFW01-Regular;fill:#f2db79;fill-opacity:1;stroke-width:0.178893"
         id="path17722" />
      <path
         d="m 23.272752,-17.132818 q -0.175203,0 -0.330939,-0.110313 -0.155737,-0.103825 -0.272539,-0.26605 -0.116802,-0.162225 -0.181692,-0.350407 -0.07138,-0.188181 -0.07138,-0.350407 v -1.888303 q 0,-0.136269 -0.05191,-0.220626 -0.0584,-0.08436 -0.149247,-0.12978 -0.09734,-0.04542 -0.214137,-0.0584 -0.116803,-0.01298 -0.233605,-0.01298 h -0.408808 v 3.387265 H 18.633108 V -27.91107 h 2.725385 v 5.664909 h 0.622946 q 0.181692,0 0.311472,-0.123291 0.123292,-0.123292 0.123292,-0.304984 v -2.952501 h 2.595605 v 2.154352 q 0,0.369874 -0.12978,0.668369 -0.136269,0.304983 -0.363385,0.538588 -0.227115,0.240093 -0.519121,0.408808 -0.298495,0.168714 -0.622945,0.272538 0.272538,0.05191 0.564544,0.188182 0.292005,0.142758 0.532099,0.350406 0.233604,0.207649 0.389341,0.473698 0.149247,0.26605 0.149247,0.571034 v 2.069995 q 0,0.116802 0.03893,0.240094 0.03244,0.12978 0.09734,0.240093 0.06489,0.116802 0.155737,0.20116 0.08436,0.09085 0.188181,0.116802 z"
         style="font-family:TuristaGordaNFW01-Regular;-inkscape-font-specification:TuristaGordaNFW01-Regular;fill:#f2db79;fill-opacity:1"
         id="path17724" />
      <path
         d="m 28.535343,-24.413492 q 0.162225,-0.253071 0.382852,-0.473698 0.214137,-0.220626 0.473698,-0.389341 0.25956,-0.162225 0.551566,-0.25956 0.285516,-0.09085 0.596989,-0.09085 h 0.571033 q 0.298495,0 0.519121,0.116802 0.214138,0.116802 0.356896,0.304984 0.142758,0.19467 0.214138,0.441253 0.06489,0.253071 0.06489,0.519121 v 7.111959 h -2.712408 v -5.982871 q 0,-0.103824 -0.03893,-0.201159 -0.04542,-0.09085 -0.116802,-0.162226 -0.07138,-0.06489 -0.162226,-0.110313 -0.09734,-0.03893 -0.201159,-0.03893 -0.207649,0 -0.350407,0.149247 -0.149247,0.155737 -0.149247,0.363385 v 5.982871 h -2.725386 v -8.494119 h 2.725386 z"
         style="font-family:TuristaGordaNFW01-Regular;-inkscape-font-specification:TuristaGordaNFW01-Regular;fill:#f2db79;fill-opacity:1"
         id="path17726" />
      <path
         d="m 37.905481,-25.626937 q 0.304983,0 0.538588,0.142758 0.233604,0.149247 0.389341,0.376363 0.155736,0.227115 0.240093,0.506143 0.07787,0.279028 0.07787,0.545077 v 5.340458 q 0,0.272539 -0.07787,0.551567 -0.08436,0.279027 -0.240093,0.506143 -0.155737,0.233604 -0.389341,0.376362 -0.233605,0.149248 -0.538588,0.149248 h -3.964788 q -0.298494,0 -0.532099,-0.149248 -0.233604,-0.142758 -0.389341,-0.376362 -0.162225,-0.227116 -0.240093,-0.506143 -0.08436,-0.279028 -0.08436,-0.551567 v -5.340458 q 0,-0.266049 0.08436,-0.545077 0.07787,-0.279028 0.240093,-0.506143 0.155737,-0.227116 0.389341,-0.376363 0.233605,-0.142758 0.532099,-0.142758 z m -1.466517,2.511248 q 0,-0.103824 -0.03893,-0.201159 -0.04542,-0.09085 -0.116803,-0.162226 -0.07138,-0.06489 -0.162225,-0.110313 -0.09733,-0.03893 -0.201159,-0.03893 -0.207649,0 -0.350407,0.149247 -0.149248,0.155737 -0.149248,0.363385 v 3.471622 q 0,0.207649 0.149248,0.356896 0.142758,0.149248 0.350407,0.149248 0.207648,0 0.363384,-0.149248 0.155737,-0.149247 0.155737,-0.356896 z"
         style="font-family:TuristaGordaNFW01-Regular;-inkscape-font-specification:TuristaGordaNFW01-Regular;fill:#f2db79;fill-opacity:1"
         id="path17728" />
      <path
         d="m 46.659159,-17.132818 q -0.603479,0 -1.168023,-0.188182 -0.571033,-0.181692 -1.038242,-0.571033 -0.298495,0.20116 -0.506143,0.343918 -0.214138,0.142758 -0.421786,0.233604 -0.207648,0.09734 -0.447742,0.13627 -0.246583,0.04542 -0.603478,0.04542 h -0.966863 q -0.52561,0 -0.888995,-0.20116 -0.369874,-0.201159 -0.596989,-0.538588 -0.233605,-0.337429 -0.337429,-0.772192 -0.103824,-0.428275 -0.103824,-0.895484 v -6.086695 h 2.641028 v 6.021805 q 0,0.188181 0.136269,0.317961 0.129781,0.136269 0.317962,0.136269 0.09734,0 0.181693,-0.03893 0.08436,-0.03244 0.149247,-0.09734 0.0584,-0.06489 0.09733,-0.149247 0.03893,-0.07787 0.03893,-0.168714 v -6.021805 h 2.641029 v 6.021805 q 0,0.188181 0.136269,0.317961 0.136269,0.136269 0.317962,0.136269 0.188181,0 0.32445,-0.136269 0.13627,-0.12978 0.13627,-0.317961 v -6.021805 h 2.647517 v 6.086695 q 0,0.467209 -0.103824,0.895484 -0.103824,0.434763 -0.33094,0.772192 -0.233604,0.337429 -0.596989,0.538588 -0.369874,0.20116 -0.895484,0.20116 z"
         style="font-family:TuristaGordaNFW01-Regular;-inkscape-font-specification:TuristaGordaNFW01-Regular;fill:#f2db79;fill-opacity:1"
         id="path17730" />
      <path
         d="m -24.608292,-5.1006602 q -0.326503,0 -0.569643,-0.1492473 -0.250088,-0.1427583 -0.416812,-0.3763628 -0.173673,-0.2271155 -0.257035,-0.5061431 -0.09031,-0.2790276 -0.09031,-0.5515662 v -4.9121834 h -0.951721 v -1.998616 h 0.951721 v -1.752034 h 2.90379 v 1.752034 h 0.896146 v 1.998616 h -0.896146 v 3.9842544 q 0,0.2076485 0.166725,0.3568958 0.166725,0.1492473 0.389025,0.1492473 h 0.35429 v 2.0051053 z"
         style="font-family:TuristaGordaNFW01-Regular;-inkscape-font-specification:TuristaGordaNFW01-Regular;fill:#f2db79;fill-opacity:1;stroke-width:0.184155"
         id="path17732" />
      <path
         d="m -19.10753,-12.699295 q 0.446468,-0.434764 0.945463,-0.668369 0.498994,-0.227115 1.135869,-0.227115 0.374245,0 0.689399,0.110313 0.308589,0.116802 0.531823,0.324451 0.223234,0.207648 0.347983,0.506143 0.124748,0.304983 0.124748,0.681346 v 6.8718658 h -2.744467 v -5.9828708 q 0,-0.103824 -0.0394,-0.201159 -0.04596,-0.09085 -0.118182,-0.162226 -0.07222,-0.06489 -0.164143,-0.110313 -0.09849,-0.03893 -0.203537,-0.03893 -0.210103,0 -0.354548,0.149247 -0.151012,0.155737 -0.151012,0.363385 v 5.9828708 h -2.757599 V -15.878912 h 2.757599 z"
         style="font-family:TuristaGordaNFW01-Regular;-inkscape-font-specification:TuristaGordaNFW01-Regular;fill:#f2db79;fill-opacity:1;stroke-width:0.179032"
         id="path17734" />
      <path
         d="m -11.178341,-5.9965704 q -0.229618,0.2145256 -0.465794,0.3835458 -0.242738,0.1690201 -0.498596,0.2795333 -0.255859,0.1170139 -0.537959,0.1755208 -0.282101,0.065008 -0.603564,0.065008 -0.347706,0 -0.656048,-0.1040124 -0.308343,-0.1040124 -0.531398,-0.3055364 -0.229618,-0.1950232 -0.360827,-0.4810573 -0.131209,-0.2795333 -0.131209,-0.6435767 v -5.3501377 q 0,-0.377045 0.124648,-0.682581 0.12465,-0.299036 0.347707,-0.507061 0.223055,-0.208025 0.537958,-0.325039 0.308343,-0.110513 0.682289,-0.110513 0.636367,0 1.141524,0.227527 0.498596,0.234028 0.951269,0.66958 v -0.897107 h 2.7422786 v 8.5095146 h -2.7422786 z m 0,-5.0901066 q 0,-0.104012 -0.03936,-0.201524 -0.04592,-0.09101 -0.118089,-0.16252 -0.07217,-0.06501 -0.164012,-0.110513 -0.09841,-0.039 -0.203375,-0.039 -0.209936,0 -0.354266,0.149517 -0.15089,0.15602 -0.15089,0.364044 v 3.4779145 q 0,0.2080248 0.15089,0.3575426 0.14433,0.1495178 0.354266,0.1495178 0.209935,0 0.367387,-0.1495178 0.157451,-0.1495178 0.157451,-0.3575426 z"
         style="font-family:TuristaGordaNFW01-Regular;-inkscape-font-specification:TuristaGordaNFW01-Regular;fill:#f2db79;fill-opacity:1;stroke-width:0.179123"
         id="path17736" />
      <path
         d="m -5.9857183,-5.1006602 q -0.3061175,0 -0.5340773,-0.1492473 Q -6.7542685,-5.3926658 -6.9105839,-5.6262703 -7.0734123,-5.8533858 -7.15157,-6.1324134 -7.236241,-6.411441 -7.236241,-6.6839796 v -4.9121834 h -0.8923 v -1.998616 h 0.8922998 v -1.752034 h 2.7224922 v 1.752034 h 0.8401948 v 1.998616 H -4.513749 v 3.9842544 q 0,0.2076485 0.1563152,0.3568958 0.1563154,0.1492473 0.3647358,0.1492473 h 0.3321701 v 2.0051053 z"
         style="font-family:TuristaGordaNFW01-Regular;-inkscape-font-specification:TuristaGordaNFW01-Regular;fill:#f2db79;fill-opacity:1;stroke-width:0.178314"
         id="path17738" />
      <path
         d="m 2.4711752,-5.1006602 q -0.3117867,0 -0.5439683,-0.1492473 Q 1.6883915,-5.3926658 1.5291813,-5.6262703 1.3633372,-5.8533858 1.2837322,-6.1324134 1.1974933,-6.411441 1.1974933,-6.6839796 V -11.596163 H 0.2886681 v -1.998616 h 0.9088252 v -1.752034 h 2.7729118 v 1.752034 h 0.855755 v 1.998616 h -0.855755 v 3.9842544 q 0,0.2076485 0.1592103,0.3568958 0.1592102,0.1492473 0.3714906,0.1492473 h 0.3383217 v 2.0051053 z"
         style="font-family:TuristaGordaNFW01-Regular;-inkscape-font-specification:TuristaGordaNFW01-Regular;fill:#f2db79;fill-opacity:1;stroke-width:0.179957"
         id="path17740" />
      <path
         d="m 7.949677,-12.699295 q 0.4503011,-0.434764 0.9535786,-0.668369 0.5032777,-0.227115 1.1456184,-0.227115 0.377459,0 0.695319,0.110313 0.311236,0.116802 0.536388,0.324451 0.22515,0.207648 0.350969,0.506143 0.12582,0.304983 0.12582,0.681346 v 6.8718658 H 8.9893426 v -5.9828708 q 0,-0.103824 -0.039732,-0.201159 -0.046354,-0.09085 -0.1191972,-0.162226 -0.072843,-0.06489 -0.1655519,-0.110313 -0.099331,-0.03893 -0.2052843,-0.03893 -0.2119063,0 -0.357592,0.149247 -0.1523077,0.155737 -0.1523077,0.363385 v 5.9828708 H 5.168406 V -15.878912 h 2.781271 z"
         style="font-family:TuristaGordaNFW01-Regular;-inkscape-font-specification:TuristaGordaNFW01-Regular;fill:#f2db79;fill-opacity:1;stroke-width:0.179799"
         id="path17742" />
      <path
         d="m 17.133448,-13.594779 q 0.308487,0 0.544776,0.142758 0.236288,0.149247 0.393814,0.376363 0.157525,0.227115 0.242852,0.506143 0.07876,0.279028 0.07876,0.545077 v 3.6273588 h -3.583706 v 0.7851706 q 0,0.2076485 0.150962,0.3568958 0.144398,0.1492473 0.354432,0.1492473 h 3.078312 v 2.0051053 h -5.080199 q -0.301924,0 -0.538213,-0.1492473 -0.236288,-0.1427583 -0.393813,-0.3763628 -0.16409,-0.2271155 -0.242853,-0.5061431 -0.08533,-0.2790276 -0.08533,-0.5515662 v -5.3404584 q 0,-0.266049 0.08533,-0.545077 0.07877,-0.279028 0.242853,-0.506143 0.157525,-0.227116 0.393813,-0.376363 0.236289,-0.142758 0.538213,-0.142758 z m -1.293022,2.511248 q 0,-0.103824 -0.03938,-0.201159 -0.04594,-0.09085 -0.118144,-0.162226 -0.0722,-0.06489 -0.164089,-0.110313 -0.09845,-0.03893 -0.203471,-0.03893 -0.210034,0 -0.354432,0.149247 -0.150962,0.155737 -0.150962,0.363385 v 1.05122 h 1.03048 z"
         style="font-family:TuristaGordaNFW01-Regular;-inkscape-font-specification:TuristaGordaNFW01-Regular;fill:#f2db79;fill-opacity:1;stroke-width:0.179002"
         id="path17744" />
      <path
         d="m 21.535217,-12.186663 q 0.152528,-0.246583 0.35811,-0.46072 0.198951,-0.214138 0.437691,-0.39583 0.238741,-0.181692 0.504008,-0.33094 0.258636,-0.142758 0.530534,-0.25956 v 2.816232 q -0.139265,-0.08436 -0.258635,-0.162226 -0.11937,-0.07787 -0.245373,-0.142758 -0.126001,-0.0584 -0.265266,-0.09733 -0.139266,-0.03245 -0.305058,-0.03245 -0.11937,0 -0.252003,0.04542 -0.132635,0.05191 -0.245373,0.136269 -0.112738,0.08436 -0.185687,0.194671 -0.07295,0.116802 -0.07295,0.246582 v 5.52864 h -2.785304 v -8.494119 h 2.785306 z"
         style="font-family:TuristaGordaNFW01-Regular;-inkscape-font-specification:TuristaGordaNFW01-Regular;fill:#f2db79;fill-opacity:1;stroke-width:0.179929"
         id="path17746" />
      <path
         d="m 28.770077,-13.594779 q 0.308205,0 0.544276,0.142758 0.236072,0.149247 0.393453,0.376363 0.15738,0.227115 0.242629,0.506143 0.07869,0.279028 0.07869,0.545077 v 3.6273588 h -3.580417 v 0.7851706 q 0,0.2076485 0.150824,0.3568958 0.144265,0.1492473 0.354106,0.1492473 h 3.075487 v 2.0051053 h -5.075539 q -0.301647,0 -0.537718,-0.1492473 -0.236072,-0.1427583 -0.393453,-0.3763628 -0.163938,-0.2271155 -0.242628,-0.5061431 -0.08525,-0.2790276 -0.08525,-0.5515662 v -5.3404584 q 0,-0.266049 0.08525,-0.545077 0.07869,-0.279028 0.242628,-0.506143 0.157381,-0.227116 0.393453,-0.376363 0.236071,-0.142758 0.537718,-0.142758 z m -1.291836,2.511248 q 0,-0.103824 -0.03934,-0.201159 -0.0459,-0.09085 -0.118035,-0.162226 -0.07213,-0.06489 -0.163939,-0.110313 -0.09837,-0.03893 -0.203284,-0.03893 -0.209841,0 -0.354106,0.149247 -0.150824,0.155737 -0.150824,0.363385 v 1.05122 h 1.029529 z"
         style="font-family:TuristaGordaNFW01-Regular;-inkscape-font-specification:TuristaGordaNFW01-Regular;fill:#f2db79;fill-opacity:1;stroke-width:0.17892"
         id="path17748" />
      <path
         d="m 30.391203,-11.551243 v -4.237326 h 3.400244 l -1.206957,4.237326 z"
         style="font-family:TuristaGordaNFW01-Regular;-inkscape-font-specification:TuristaGordaNFW01-Regular;fill:#f2db79;fill-opacity:1"
         id="path17750" />
      <path
         d="m 33.473484,-5.1006602 v -2.0051053 h 2.777298 v -1.0901543 h -1.583319 q -0.298495,0 -0.532099,-0.1492473 -0.233605,-0.1427583 -0.389341,-0.3763628 -0.162225,-0.2271155 -0.240094,-0.5061431 -0.08436,-0.2790276 -0.08436,-0.5515662 v -2.2451988 q 0,-0.266049 0.08436,-0.545077 0.07787,-0.279028 0.240094,-0.506143 0.155736,-0.227116 0.389341,-0.376363 0.233604,-0.142758 0.532099,-0.142758 h 4.016699 v 1.998616 h -2.777298 v 1.103132 h 1.576831 q 0.298494,0 0.532099,0.142759 0.233604,0.149247 0.39583,0.3763624 0.155736,0.2336045 0.240093,0.5126321 0.08436,0.2790276 0.08436,0.5450772 v 2.2322207 q 0,0.2725386 -0.08436,0.5515662 -0.08436,0.2790276 -0.240093,0.5061431 -0.162226,0.2336045 -0.39583,0.3763628 -0.233605,0.1492473 -0.532099,0.1492473 z"
         style="font-family:TuristaGordaNFW01-Regular;-inkscape-font-specification:TuristaGordaNFW01-Regular;fill:#f2db79;fill-opacity:1"
         id="path17752" />
      <path
         d="m 46.561828,-6.0026332 q -0.227115,0.2141375 -0.46072,0.3828519 -0.240093,0.1687143 -0.493165,0.2790276 -0.253071,0.1168022 -0.532099,0.1752033 -0.279027,0.06489 -0.596989,0.06489 -0.343918,0 -0.648901,-0.1038242 -0.304984,-0.1038242 -0.525611,-0.3049836 -0.227115,-0.1946704 -0.356895,-0.480187 -0.129781,-0.2790276 -0.129781,-0.6424124 v -5.3404584 q 0,-0.376363 0.123292,-0.681346 0.123291,-0.298495 0.343917,-0.506143 0.220627,-0.207649 0.5321,-0.324451 0.304983,-0.110313 0.674857,-0.110313 0.629434,0 1.129088,0.227115 0.493165,0.233605 0.940907,0.668369 v -0.895484 h 2.712408 v 8.4941187 h -2.712408 z m 0,-5.0808978 q 0,-0.103824 -0.03893,-0.201159 -0.04542,-0.09085 -0.116802,-0.162226 -0.07138,-0.06489 -0.162225,-0.110313 -0.09733,-0.03893 -0.20116,-0.03893 -0.207648,0 -0.350406,0.149247 -0.149248,0.155737 -0.149248,0.363385 v 3.4716224 q 0,0.2076485 0.149248,0.3568958 0.142758,0.1492473 0.350406,0.1492473 0.207649,0 0.363385,-0.1492473 0.155736,-0.1492473 0.155736,-0.3568958 z"
         style="font-family:TuristaGordaNFW01-Regular;-inkscape-font-specification:TuristaGordaNFW01-Regular;fill:#f2db79;fill-opacity:1"
         id="path17754" />
      <path
         d="m -24.624849,6.9481055 q -0.324138,0 -0.565517,-0.149247 -0.248276,-0.142758 -0.413793,-0.376363 -0.172414,-0.227115 -0.255173,-0.506143 -0.08966,-0.279027 -0.08966,-0.551566 V 0.45260351 h -0.944826 V -1.5460132 h 0.944826 v -1.7520337 h 2.882756 v 1.7520337 h 0.889656 v 1.99861671 h -0.889656 V 4.4368575 q 0,0.207648 0.165518,0.356896 0.165517,0.149247 0.386206,0.149247 h 0.351724 v 2.005105 z"
         style="font-family:TuristaGordaNFW01-Regular;-inkscape-font-specification:TuristaGordaNFW01-Regular;fill:#f2db79;fill-opacity:1;stroke-width:0.183487"
         id="path17756" />
      <path
         d="m -15.349242,5.3647865 q 0,0.272539 -0.07814,0.551566 -0.08465,0.279028 -0.240919,0.506143 -0.156272,0.233605 -0.39068,0.376363 -0.234408,0.149247 -0.54044,0.149247 h -3.978424 q -0.299521,0 -0.533929,-0.149247 -0.234408,-0.142758 -0.39068,-0.376363 -0.162783,-0.227115 -0.240919,-0.506143 -0.08465,-0.279027 -0.08465,-0.551566 v -6.9107997 h 2.734758 v 5.9828707 q 0,0.207648 0.149762,0.356896 0.143249,0.149247 0.351611,0.149247 0.208363,0 0.364634,-0.149247 0.156273,-0.149248 0.156273,-0.356896 v -5.9828707 h 2.721736 z"
         style="font-family:TuristaGordaNFW01-Regular;-inkscape-font-specification:TuristaGordaNFW01-Regular;fill:#f2db79;fill-opacity:1;stroke-width:0.178289"
         id="path17758" />
      <path
         d="m -12.248201,-0.33256759 q 0.163081,-0.2530716 0.384872,-0.473698 0.215268,-0.22062651 0.476199,-0.38934091 0.26093,-0.1622253 0.554477,-0.2595605 0.287023,-0.090846 0.60014,-0.090846 h 0.5740478 q 0.30007,0 0.521861,0.1168022 0.215268,0.1168023 0.35878,0.3049837 0.143512,0.19467041 0.215268,0.44125291 0.06523,0.2530716 0.06523,0.5191211 V 6.9481055 H -11.224049 V 0.96523551 q 0,-0.103825 -0.03913,-0.20116 -0.04566,-0.09085 -0.117419,-0.162225 -0.07176,-0.06489 -0.163082,-0.110313 -0.09784,-0.03893 -0.202221,-0.03893 -0.208745,0 -0.352257,0.149247 -0.150034,0.155736 -0.150034,0.363385 V 6.9481095 h -2.739772 v -8.4941227 h 2.739772 z"
         style="font-family:TuristaGordaNFW01-Regular;-inkscape-font-specification:TuristaGordaNFW01-Regular;fill:#f2db79;fill-opacity:1;stroke-width:0.178452"
         id="path17760" />
      <path
         d="m -5.3754846,-0.33256759 q 0.163345,-0.2530716 0.385494,-0.473698 0.215615,-0.22062651 0.476967,-0.38934091 0.261352,-0.1622253 0.555373,-0.2595605 0.287487,-0.090846 0.601109,-0.090846 h 0.574974 q 0.300554,0 0.522703,0.1168022 0.215616,0.1168023 0.359359,0.3049837 0.143744,0.19467041 0.215615,0.44125291 0.06534,0.2530716 0.06534,0.5191211 V 6.9481055 h -2.731128 V 0.96523551 q 0,-0.103825 -0.0392,-0.20116 -0.04574,-0.09085 -0.117609,-0.162225 -0.07187,-0.06489 -0.163344,-0.110313 -0.09801,-0.03893 -0.202548,-0.03893 -0.209082,0 -0.352825,0.149247 -0.150277,0.155736 -0.150277,0.363385 V 6.9481095 h -2.744194 v -8.4941227 h 2.744194 z"
         style="font-family:TuristaGordaNFW01-Regular;-inkscape-font-specification:TuristaGordaNFW01-Regular;fill:#f2db79;fill-opacity:1;stroke-width:0.178596"
         id="path17762" />
      <path
         d="m 3.7574028,-1.5460132 q 0.304984,0 0.538588,0.1427583 0.233605,0.1492473 0.389341,0.3763628 0.155736,0.22711551 0.240093,0.50614311 0.07787,0.2790276 0.07787,0.5450771 V 3.6516865 h -3.543001 v 0.785171 q 0,0.207648 0.149247,0.356896 0.142759,0.149247 0.350407,0.149247 h 3.043348 v 2.005105 h -5.02249702 q -0.298495,0 -0.532099,-0.149247 -0.233605,-0.142758 -0.389341,-0.376363 -0.16222498,-0.227115 -0.24009398,-0.506143 -0.08436,-0.279027 -0.08436,-0.551566 V 0.02432811 q 0,-0.2660495 0.08436,-0.5450771 0.07787,-0.2790276 0.24009398,-0.50614311 0.155736,-0.2271155 0.389341,-0.3763628 0.233604,-0.1427583 0.532099,-0.1427583 z m -1.278336,2.51124871 q 0,-0.103825 -0.03893,-0.20116 -0.04542,-0.09085 -0.116802,-0.162225 -0.07138,-0.06489 -0.162225,-0.110313 -0.09734,-0.03893 -0.20116,-0.03893 -0.207648,0 -0.350407,0.149247 -0.149247,0.155736 -0.149247,0.363385 V 2.0164555 h 1.018775 z"
         style="font-family:TuristaGordaNFW01-Regular;-inkscape-font-specification:TuristaGordaNFW01-Regular;fill:#f2db79;fill-opacity:1"
         id="path17764" />
      <path
         d="M 8.2114522,6.9481055 H 5.4509592 V -3.8301461 h 2.760493 z"
         style="font-family:TuristaGordaNFW01-Regular;-inkscape-font-specification:TuristaGordaNFW01-Regular;fill:#f2db79;fill-opacity:1;stroke-width:0.179126"
         id="path17766" />
      <path
         d="m 18.783766,5.3647865 q 0,0.272539 -0.08022,0.551566 -0.08691,0.279028 -0.247368,0.506143 -0.160455,0.233605 -0.401137,0.376363 -0.240682,0.149247 -0.554905,0.149247 h -4.084908 q -0.30754,0 -0.548221,-0.149247 -0.240687,-0.142758 -0.401141,-0.376363 -0.167141,-0.227115 -0.247368,-0.506143 -0.08692,-0.279027 -0.08692,-0.551566 v -6.9107997 h 2.807957 v 5.9828707 q 0,0.207648 0.153769,0.356896 0.147084,0.149247 0.361024,0.149247 0.213939,0 0.374393,-0.149247 0.160455,-0.149248 0.160455,-0.356896 v -5.9828707 h 2.794586 z"
         style="font-family:TuristaGordaNFW01-Regular;-inkscape-font-specification:TuristaGordaNFW01-Regular;fill:#f2db79;fill-opacity:1;stroke-width:0.18066"
         id="path17768" />
      <path
         d="m 21.85766,-0.33256759 q 0.162225,-0.2530716 0.382851,-0.473698 0.214138,-0.22062651 0.473698,-0.38934091 0.259561,-0.1622253 0.551567,-0.2595605 0.285516,-0.090846 0.596989,-0.090846 h 0.571033 q 0.298495,0 0.519121,0.1168022 0.214138,0.1168023 0.356896,0.3049837 0.142758,0.19467041 0.214137,0.44125291 0.06489,0.2530716 0.06489,0.5191211 V 6.9481055 H 22.876434 V 0.96523551 q 0,-0.103825 -0.03893,-0.20116 -0.04542,-0.09085 -0.116803,-0.162225 -0.07138,-0.06489 -0.162225,-0.110313 -0.09734,-0.03893 -0.201159,-0.03893 -0.207649,0 -0.350407,0.149247 -0.149247,0.155736 -0.149247,0.363385 V 6.9481095 h -2.725389 v -8.4941227 h 2.725386 z"
         style="font-family:TuristaGordaNFW01-Regular;-inkscape-font-specification:TuristaGordaNFW01-Regular;fill:#f2db79;fill-opacity:1"
         id="path17770" />
      <path
         d="m 29.75168,6.0461325 q -0.226534,0.214138 -0.45954,0.382852 -0.239477,0.168715 -0.4919,0.279028 -0.252424,0.116802 -0.530735,0.175203 -0.278313,0.06489 -0.595461,0.06489 -0.343034,0 -0.647237,-0.103824 -0.304202,-0.103824 -0.524263,-0.304984 -0.226534,-0.19467 -0.35598,-0.480187 -0.129448,-0.279027 -0.129448,-0.642412 V 0.07624021 q 0,-0.3763628 0.122975,-0.6813464 0.122975,-0.2984946 0.343037,-0.50614311 0.220059,-0.2076484 0.530735,-0.3244507 0.304202,-0.1103132 0.673126,-0.1103132 0.627822,0 1.126196,0.2271155 0.4919,0.2336045 0.938495,0.66836841 V -3.8301461 h 2.705454 V 6.9481055 H 29.75168 Z m 0,-5.08089699 q 0,-0.103825 -0.03883,-0.20116 -0.0453,-0.09085 -0.116502,-0.162225 -0.0712,-0.06489 -0.16181,-0.110313 -0.09709,-0.03893 -0.200643,-0.03893 -0.207117,0 -0.349509,0.149247 -0.148864,0.155736 -0.148864,0.363385 V 4.4368615 q 0,0.207648 0.148864,0.356896 0.142392,0.149247 0.349509,0.149247 0.207115,0 0.362453,-0.149247 0.155337,-0.149248 0.155337,-0.356896 z"
         style="font-family:TuristaGordaNFW01-Regular;-inkscape-font-specification:TuristaGordaNFW01-Regular;fill:#f2db79;fill-opacity:1;stroke-width:0.177755"
         id="path17772" />
      <path
         d="m 37.916183,-1.5460132 q 0.304984,0 0.538588,0.1427583 0.233605,0.1492473 0.389341,0.3763628 0.155736,0.22711551 0.240094,0.50614311 0.07787,0.2790276 0.07787,0.5450771 V 3.6516865 h -3.543002 v 0.785171 q 0,0.207648 0.149248,0.356896 0.142758,0.149247 0.350406,0.149247 h 3.043348 v 2.005105 h -5.022497 q -0.298495,0 -0.532099,-0.149247 -0.233605,-0.142758 -0.389341,-0.376363 -0.162225,-0.227115 -0.240093,-0.506143 -0.08436,-0.279027 -0.08436,-0.551566 V 0.02432811 q 0,-0.2660495 0.08436,-0.5450771 0.07787,-0.2790276 0.240093,-0.50614311 0.155736,-0.2271155 0.389341,-0.3763628 0.233604,-0.1427583 0.532099,-0.1427583 z m -1.278336,2.51124871 q 0,-0.103825 -0.03893,-0.20116 -0.04542,-0.09085 -0.116802,-0.162225 -0.07138,-0.06489 -0.162225,-0.110313 -0.09734,-0.03893 -0.20116,-0.03893 -0.207648,0 -0.350406,0.149247 -0.149248,0.155736 -0.149248,0.363385 V 2.0164555 h 1.018775 z"
         style="font-family:TuristaGordaNFW01-Regular;-inkscape-font-specification:TuristaGordaNFW01-Regular;fill:#f2db79;fill-opacity:1"
         id="path17774" />
      <path
         d="m 42.208164,-0.13789719 q 0.149247,-0.2465825 0.350407,-0.46072 0.19467,-0.2141374 0.428275,-0.3958298 0.233604,-0.18169241 0.493165,-0.33093971 0.253071,-0.1427583 0.519121,-0.2595606 v 2.8162318 q -0.136269,-0.08436 -0.253072,-0.162225 -0.116802,-0.07787 -0.240093,-0.14275799 -0.123291,-0.0584 -0.259561,-0.09734 -0.136269,-0.03245 -0.298494,-0.03245 -0.116803,0 -0.246583,0.04542 -0.12978,0.05191 -0.240093,0.13627 -0.110314,0.08436 -0.181693,0.19466999 -0.07138,0.116802 -0.07138,0.246583 v 5.528651 h -2.725385 v -8.4941187 h 2.725386 z"
         style="font-family:TuristaGordaNFW01-Regular;-inkscape-font-specification:TuristaGordaNFW01-Regular;fill:#f2db79;fill-opacity:1"
         id="path17776" />
      <path
         d="m -22.175392,8.2768062 q 0.57804,0 0.988046,0.201159 0.403283,0.207649 0.658696,0.551566 0.255414,0.350407 0.376398,0.804638 0.114264,0.4542308 0.114264,0.9538848 v 5.703843 q 0,0.493165 -0.114264,0.953885 -0.120984,0.46072 -0.376398,0.817616 -0.255413,0.356896 -0.658696,0.571033 -0.410006,0.220627 -0.988046,0.220627 h -2.587738 q -0.57804,0 -0.981323,-0.220627 -0.403285,-0.214137 -0.658698,-0.571033 -0.255412,-0.356896 -0.369677,-0.817616 -0.120985,-0.46072 -0.120985,-0.953885 v -5.703843 q 0,-0.499654 0.120985,-0.9538848 0.114265,-0.454231 0.369677,-0.804638 0.255413,-0.343917 0.658698,-0.551566 0.403283,-0.201159 0.981323,-0.201159 z m -0.813289,2.7902758 q 0,-0.188182 -0.141149,-0.33094 -0.14115,-0.136269 -0.336071,-0.136269 -0.194919,0 -0.336069,0.136269 -0.147871,0.142758 -0.147871,0.33094 v 5.340458 q 0,0.188181 0.147871,0.324451 0.14115,0.142758 0.336069,0.142758 0.194921,0 0.336071,-0.142758 0.141149,-0.13627 0.141149,-0.324451 z"
         style="font-family:TuristaGordaNFW01-Regular;-inkscape-font-specification:TuristaGordaNFW01-Regular;fill:#f2db79;fill-opacity:1;stroke-width:0.181141"
         id="path17778" />
      <path
         d="m -15.034141,10.560939 v 1.998616 h -1.974012 v 4.490397 h 1.974012 v 2.005106 h -3.459406 q -0.299685,0 -0.534221,-0.149248 -0.234536,-0.142758 -0.390893,-0.376362 -0.162873,-0.227116 -0.241052,-0.506144 -0.0847,-0.279027 -0.0847,-0.551566 V 12.13128 q 0,-0.26605 0.0847,-0.545077 0.07818,-0.279028 0.241052,-0.506143 0.156357,-0.227116 0.390893,-0.376363 0.234536,-0.142758 0.534221,-0.142758 z"
         style="font-family:TuristaGordaNFW01-Regular;-inkscape-font-specification:TuristaGordaNFW01-Regular;fill:#f2db79;fill-opacity:1;stroke-width:0.178337"
         id="path17780" />
      <path
         d="m -9.6413998,10.560939 q 0.3061997,0 0.5407357,0.142758 0.2345359,0.149247 0.3908932,0.376363 0.1563574,0.227115 0.2410509,0.506143 0.078178,0.279027 0.078178,0.545077 v 3.627359 h -3.557129 v 0.78517 q 0,0.207649 0.149842,0.356896 0.143328,0.149247 0.351804,0.149247 h 3.055483 v 2.005106 h -5.042524 q -0.299685,0 -0.53422,-0.149248 -0.234537,-0.142758 -0.390894,-0.376362 -0.162872,-0.227116 -0.241051,-0.506144 -0.0847,-0.279027 -0.0847,-0.551566 V 12.13128 q 0,-0.26605 0.0847,-0.545077 0.07818,-0.279028 0.241051,-0.506143 0.156357,-0.227116 0.390894,-0.376363 0.234535,-0.142758 0.53422,-0.142758 z m -1.2834332,2.511248 q 0,-0.103824 -0.03909,-0.20116 -0.0456,-0.09085 -0.117268,-0.162225 -0.07166,-0.06489 -0.162872,-0.110313 -0.09773,-0.03893 -0.201962,-0.03893 -0.208476,0 -0.351804,0.149247 -0.149842,0.155736 -0.149842,0.363385 v 1.05122 h 1.022837 z"
         style="font-family:TuristaGordaNFW01-Regular;-inkscape-font-specification:TuristaGordaNFW01-Regular;fill:#f2db79;fill-opacity:1;stroke-width:0.178337"
         id="path17782" />
      <path
         d="m -4.1282169,18.153085 q -0.228021,0.214137 -0.462557,0.382852 -0.241051,0.168714 -0.4951316,0.279027 -0.2540806,0.116802 -0.5342208,0.175203 -0.2801402,0.06489 -0.5993698,0.06489 -0.345289,0 -0.6514888,-0.103825 -0.3061998,-0.103824 -0.527706,-0.304983 -0.2280211,-0.194671 -0.3583188,-0.480187 -0.1302978,-0.279028 -0.1302978,-0.642413 v -5.340458 q 0,-0.376363 0.1237828,-0.681346 0.1237829,-0.298495 0.3452892,-0.506143 0.2215061,-0.207649 0.5342208,-0.324451 0.3061998,-0.110313 0.6775484,-0.110313 0.6319442,0 1.1335906,0.227115 0.4951316,0.233605 0.9446588,0.668368 v -0.895483 h 2.7232234 v 8.494119 h -2.7232234 z m 0,-5.080898 q 0,-0.103824 -0.039089,-0.20116 -0.045604,-0.09085 -0.1172681,-0.162225 -0.071664,-0.06489 -0.1628722,-0.110313 -0.097723,-0.03893 -0.2019616,-0.03893 -0.2084764,0 -0.3518039,0.149247 -0.1498424,0.155736 -0.1498424,0.363385 v 3.471622 q 0,0.207649 0.1498424,0.356896 0.1433275,0.149247 0.3518039,0.149247 0.2084765,0 0.3648338,-0.149247 0.1563573,-0.149247 0.1563573,-0.356896 z"
         style="font-family:TuristaGordaNFW01-Regular;-inkscape-font-specification:TuristaGordaNFW01-Regular;fill:#f2db79;fill-opacity:1;stroke-width:0.178337"
         id="path17784" />
      <path
         d="m 1.7378362,11.774384 q 0.1628722,-0.253071 0.3843785,-0.473698 0.2149913,-0.220626 0.4755868,-0.389341 0.2605956,-0.162225 0.5537656,-0.25956 0.286655,-0.09085 0.5993697,-0.09085 H 4.324247 q 0.2996848,0 0.5211911,0.116802 0.2149912,0.116802 0.3583188,0.304983 0.1433275,0.194671 0.2149914,0.441253 0.065149,0.253072 0.065149,0.519122 v 7.111959 H 2.7606738 v -5.982871 q 0,-0.103824 -0.039089,-0.20116 -0.045604,-0.09085 -0.117268,-0.162225 -0.071664,-0.06489 -0.1628722,-0.110313 -0.097723,-0.03893 -0.2019615,-0.03893 -0.2084765,0 -0.351804,0.149247 -0.1498425,0.155736 -0.1498425,0.363385 v 5.982871 H -0.99841645 V 10.560939 H 1.7378366 Z"
         style="font-family:TuristaGordaNFW01-Regular;-inkscape-font-specification:TuristaGordaNFW01-Regular;fill:#f2db79;fill-opacity:1;stroke-width:0.178337"
         id="path17786" />
      <path
         d="m 14.739301,13.675665 q 0.424645,0.07138 0.723222,0.26605 0.291944,0.19467 0.471091,0.480187 0.179147,0.285516 0.258768,0.635923 0.07962,0.356896 0.07962,0.752726 v 0.681346 q 0,0.493165 -0.112796,0.953885 -0.119431,0.46072 -0.371564,0.817616 -0.252133,0.356896 -0.650236,0.571033 -0.40474,0.220627 -0.981992,0.220627 H 9.3582594 V 8.2768062 h 4.6578186 q 0.570616,0 0.975355,0.214137 0.398105,0.220627 0.650238,0.577522 0.252132,0.356896 0.371563,0.817616 0.112797,0.4607198 0.112797,0.9538848 v 0.571033 q 0,0.369874 -0.06635,0.72677 -0.06635,0.363385 -0.225592,0.668368 -0.159241,0.311473 -0.424645,0.538588 z m -1.526066,-2.608583 q 0,-0.188182 -0.139336,-0.33094 -0.139337,-0.136269 -0.331754,-0.136269 H 12.26442 v 1.985638 h 0.477725 q 0.192417,0 0.331754,-0.142758 0.139336,-0.13627 0.139336,-0.324451 z m 0.139336,4.081589 q 0,-0.188181 -0.1327,-0.330939 -0.139338,-0.13627 -0.331755,-0.13627 H 12.26442 v 2.050529 h 0.623696 q 0.09289,0 0.179147,-0.03893 0.07962,-0.03893 0.145972,-0.103825 0.06635,-0.0584 0.106161,-0.142758 0.03318,-0.08436 0.03318,-0.181692 z"
         style="font-family:TuristaGordaNFW01-Regular;-inkscape-font-specification:TuristaGordaNFW01-Regular;fill:#f2db79;fill-opacity:1;stroke-width:0.179974"
         id="path17788" />
      <path
         d="M 19.279777,19.055058 H 16.543524 V 8.2768062 h 2.736253 z"
         style="font-family:TuristaGordaNFW01-Regular;-inkscape-font-specification:TuristaGordaNFW01-Regular;fill:#f2db79;fill-opacity:1;stroke-width:0.178337"
         id="path17790" />
      <path
         d="m 22.974379,16.965595 q 0.3062,-0.246582 0.416953,-0.584011 0.104238,-0.33094 0.104238,-0.700814 v -5.119831 h 2.723224 v 3.893408 q 0,0.707302 -0.162872,1.330248 -0.162873,0.622945 -0.449528,1.181 -0.286655,0.564544 -0.684064,1.077176 -0.403923,0.519122 -0.87951,1.012287 h -2.130368 q -0.475587,-0.493165 -0.872995,-1.012287 -0.403923,-0.512632 -0.690578,-1.077176 -0.286655,-0.558055 -0.449527,-1.181 -0.162873,-0.622946 -0.162873,-1.330248 v -3.893408 h 2.736254 v 5.119831 q 0,0.369874 0.104238,0.700814 z"
         style="font-family:TuristaGordaNFW01-Regular;-inkscape-font-specification:TuristaGordaNFW01-Regular;fill:#f2db79;fill-opacity:1;stroke-width:0.178337"
         id="path17792" />
      <path
         d="m 30.42448,18.153085 q -0.228021,0.214137 -0.462557,0.382852 -0.241051,0.168714 -0.495132,0.279027 -0.25408,0.116802 -0.53422,0.175203 -0.280141,0.06489 -0.59937,0.06489 -0.345289,0 -0.651489,-0.103825 -0.306199,-0.103824 -0.527706,-0.304983 -0.228021,-0.194671 -0.358318,-0.480187 -0.130299,-0.279028 -0.130299,-0.642413 v -5.340458 q 0,-0.376363 0.123783,-0.681346 0.123783,-0.298495 0.345289,-0.506143 0.221507,-0.207649 0.534221,-0.324451 0.3062,-0.110313 0.677549,-0.110313 0.631944,0 1.13359,0.227115 0.495132,0.233605 0.944659,0.668368 V 8.2768052 h 2.723224 V 19.055057 H 30.42448 Z m 0,-5.080898 q 0,-0.103824 -0.03909,-0.20116 -0.0456,-0.09085 -0.117268,-0.162225 -0.07166,-0.06489 -0.162872,-0.110313 -0.09773,-0.03893 -0.201962,-0.03893 -0.208476,0 -0.351804,0.149247 -0.149842,0.155736 -0.149842,0.363385 v 3.471622 q 0,0.207649 0.149842,0.356896 0.143328,0.149247 0.351804,0.149247 0.208477,0 0.364834,-0.149247 0.156357,-0.149247 0.156357,-0.356896 z"
         style="font-family:TuristaGordaNFW01-Regular;-inkscape-font-specification:TuristaGordaNFW01-Regular;fill:#f2db79;fill-opacity:1;stroke-width:0.178337"
         id="path17794" />
    </g>
  </g>
</svg>
